<svg width="18" height="18" viewBox="0 0 18 18" fill="none" xmlns="http://www.w3.org/2000/svg">
<path d="M6.2 3.2C5.1 3.2 4.2 4.05 4.15 5.15C3.15 5.35 2.4 6.22 2.4 7.28C2.4 8.02 2.78 8.68 3.34 9.07C2.86 9.5 2.55 10.13 2.55 10.82C2.55 12.02 3.47 13 4.64 13.08C4.92 14.1 5.86 14.85 6.98 14.85H8.1V5.15C8.1 4.08 7.25 3.2 6.2 3.2Z" fill="#F3A7D8"/>
<path d="M11.8 3.2C12.9 3.2 13.8 4.05 13.85 5.15C14.85 5.35 15.6 6.22 15.6 7.28C15.6 8.02 15.22 8.68 14.66 9.07C15.14 9.5 15.45 10.13 15.45 10.82C15.45 12.02 14.53 13 13.36 13.08C13.08 14.1 12.14 14.85 11.02 14.85H9.9V5.15C9.9 4.08 10.75 3.2 11.8 3.2Z" fill="#E9C349"/>
<path d="M5.2 7.2C5.95 7.2 6.55 6.67 6.72 5.95M4.9 10.15C5.75 10.15 6.42 10.72 6.6 11.5M12.8 7.2C12.05 7.2 11.45 6.67 11.28 5.95M13.1 10.15C12.25 10.15 11.58 10.72 11.4 11.5" stroke="#160F22" stroke-opacity=".45" stroke-width=".8" stroke-linecap="round"/>
</svg>