<svg width="18" height="18" viewBox="0 0 18 18" fill="none" xmlns="http://www.w3.org/2000/svg">
<path d="M9.4 1.6C10.1 4.1 7.5 5.25 7.5 7.15C7.5 8 8.1 8.6 8.85 8.6C9.95 8.6 10.75 7.65 10.75 6.25C12.65 7.5 14.1 9.1 14.1 11.35C14.1 14.15 11.85 16.4 9.05 16.4C6.25 16.4 3.9 14.15 3.9 11.35C3.9 8.25 6.65 6.85 7.35 4.75C7.65 3.85 7.8 2.85 7.55 1.95C8.15 2.15 8.8 2.02 9.4 1.6Z" fill="#FF6A3D"/>
<path d="M9.25 14.9C8.05 14.9 7.05 13.95 7.05 12.75C7.05 11.65 8.1 10.9 8.45 9.95C9.25 10.7 10.9 11.4 10.9 12.8C10.9 13.95 10.02 14.9 9.25 14.9Z" fill="#F4D33F"/>
</svg>