<svg width="390" height="904" viewBox="0 0 390 904" fill="none" xmlns="http://www.w3.org/2000/svg">
<rect width="390" height="904" fill="#131020"/>
<g clip-path="url(#clip0_413_3191)">
<g filter="url(#filter0_f_413_3191)">
<rect x="-57" y="49" width="289" height="393.025" rx="144.5" fill="#9100FF" fill-opacity="0.1"/>
</g>
<g filter="url(#filter1_f_413_3191)">
<rect x="195" y="353.61" width="234" height="353.59" rx="117" fill="#FF6A00" fill-opacity="0.05"/>
</g>
<path d="M144.692 46V35.7607H139.252V46H136.668V33.6162H147.197V46H144.692ZM158.693 41.2363C158.693 42.7773 158.266 43.9873 157.41 44.8662C156.555 45.7393 155.371 46.1758 153.859 46.1758C152.377 46.1758 151.214 45.7363 150.37 44.8574C149.526 43.9785 149.104 42.7715 149.104 41.2363C149.104 39.707 149.526 38.5059 150.37 37.6328C151.214 36.7539 152.395 36.3145 153.912 36.3145C155.465 36.3145 156.648 36.7393 157.463 37.5889C158.283 38.4326 158.693 39.6484 158.693 41.2363ZM156.109 41.2363C156.109 40.1055 155.925 39.2852 155.556 38.7754C155.187 38.2656 154.65 38.0107 153.947 38.0107C152.447 38.0107 151.697 39.0859 151.697 41.2363C151.697 42.2969 151.879 43.1055 152.242 43.6621C152.611 44.2129 153.142 44.4883 153.833 44.4883C155.351 44.4883 156.109 43.4043 156.109 41.2363ZM162.139 36.4902V39.8828C162.139 40.7969 162.602 41.2539 163.527 41.2539C163.797 41.2539 164.055 41.2363 164.301 41.2012C164.553 41.1602 165.013 41.0459 165.681 40.8584V36.4902H168.15V46H165.681V42.3525L164.934 42.6162C164.037 42.9443 163.182 43.1084 162.367 43.1084C161.512 43.1084 160.85 42.8682 160.381 42.3877C159.912 41.9014 159.678 41.2188 159.678 40.3398V36.4902H162.139ZM169.917 36.4902H177.722V38.1602H175.059V46H172.58V38.1602H169.917V36.4902ZM181.782 36.4902V40.7617C181.782 41.0312 181.762 41.4619 181.721 42.0537C181.68 42.6455 181.642 43.0557 181.606 43.2842L185.544 36.4902H188.049V46H185.764V41.166C185.764 40.873 185.784 40.5127 185.825 40.085C185.866 39.6572 185.904 39.3643 185.939 39.2061L182.116 46H179.479V36.4902H181.782ZM201.329 36.4902V38.1602H198.051V46H195.572V36.4902H201.329ZM211.867 41.2363C211.867 42.7773 211.439 43.9873 210.584 44.8662C209.729 45.7393 208.545 46.1758 207.033 46.1758C205.551 46.1758 204.388 45.7363 203.544 44.8574C202.7 43.9785 202.278 42.7715 202.278 41.2363C202.278 39.707 202.7 38.5059 203.544 37.6328C204.388 36.7539 205.568 36.3145 207.086 36.3145C208.639 36.3145 209.822 36.7393 210.637 37.5889C211.457 38.4326 211.867 39.6484 211.867 41.2363ZM209.283 41.2363C209.283 40.1055 209.099 39.2852 208.729 38.7754C208.36 38.2656 207.824 38.0107 207.121 38.0107C205.621 38.0107 204.871 39.0859 204.871 41.2363C204.871 42.2969 205.053 43.1055 205.416 43.6621C205.785 44.2129 206.315 44.4883 207.007 44.4883C208.524 44.4883 209.283 43.4043 209.283 41.2363ZM212.632 36.4902H220.437V38.1602H217.773V46H215.295V38.1602H212.632V36.4902ZM230.992 41.2363C230.992 42.7773 230.564 43.9873 229.709 44.8662C228.854 45.7393 227.67 46.1758 226.158 46.1758C224.676 46.1758 223.513 45.7363 222.669 44.8574C221.825 43.9785 221.403 42.7715 221.403 41.2363C221.403 39.707 221.825 38.5059 222.669 37.6328C223.513 36.7539 224.693 36.3145 226.211 36.3145C227.764 36.3145 228.947 36.7393 229.762 37.5889C230.582 38.4326 230.992 39.6484 230.992 41.2363ZM228.408 41.2363C228.408 40.1055 228.224 39.2852 227.854 38.7754C227.485 38.2656 226.949 38.0107 226.246 38.0107C224.746 38.0107 223.996 39.0859 223.996 41.2363C223.996 42.2969 224.178 43.1055 224.541 43.6621C224.91 44.2129 225.44 44.4883 226.132 44.4883C227.649 44.4883 228.408 43.4043 228.408 41.2363ZM237.672 36.4902C240.426 36.4902 241.803 37.2842 241.803 38.8721C241.803 39.4229 241.615 39.8799 241.24 40.2432C240.865 40.6006 240.341 40.8408 239.667 40.9639V41.0254C240.452 41.1191 241.047 41.3564 241.451 41.7373C241.861 42.1182 242.066 42.625 242.066 43.2578C242.066 44.1777 241.715 44.8662 241.012 45.3232C240.314 45.7744 239.324 46 238.041 46H232.961V36.4902H237.672ZM235.439 44.4619H237.435C238.208 44.4619 238.753 44.3652 239.069 44.1719C239.386 43.9727 239.544 43.6387 239.544 43.1699C239.544 42.6719 239.377 42.3232 239.043 42.124C238.709 41.9248 238.141 41.8252 237.338 41.8252H235.439V44.4619ZM235.439 38.0283V40.3135H237.268C237.982 40.3135 238.486 40.2285 238.779 40.0586C239.078 39.8887 239.228 39.5898 239.228 39.1621C239.228 38.7695 239.087 38.4824 238.806 38.3008C238.524 38.1191 238.05 38.0283 237.382 38.0283H235.439ZM252.824 41.2363C252.824 42.7773 252.396 43.9873 251.541 44.8662C250.686 45.7393 249.502 46.1758 247.99 46.1758C246.508 46.1758 245.345 45.7363 244.501 44.8574C243.657 43.9785 243.235 42.7715 243.235 41.2363C243.235 39.707 243.657 38.5059 244.501 37.6328C245.345 36.7539 246.525 36.3145 248.043 36.3145C249.596 36.3145 250.779 36.7393 251.594 37.5889C252.414 38.4326 252.824 39.6484 252.824 41.2363ZM250.24 41.2363C250.24 40.1055 250.056 39.2852 249.687 38.7754C249.317 38.2656 248.781 38.0107 248.078 38.0107C246.578 38.0107 245.828 39.0859 245.828 41.2363C245.828 42.2969 246.01 43.1055 246.373 43.6621C246.742 44.2129 247.272 44.4883 247.964 44.4883C249.481 44.4883 250.24 43.4043 250.24 41.2363Z" fill="#F1F5F9"/>
</g>
<path d="M35.825 41L41.425 46.6L40 48L32 40L40 32L41.425 33.4L35.825 39H48V41H35.825Z" fill="#F1F5F9"/>
<defs>
<filter id="filter0_f_413_3191" x="-205.205" y="-99.2051" width="585.41" height="689.436" filterUnits="userSpaceOnUse" color-interpolation-filters="sRGB">
<feFlood flood-opacity="0" result="BackgroundImageFix"/>
<feBlend mode="normal" in="SourceGraphic" in2="BackgroundImageFix" result="shape"/>
<feGaussianBlur stdDeviation="74.1026" result="effect1_foregroundBlur_413_3191"/>
</filter>
<filter id="filter1_f_413_3191" x="75" y="233.61" width="474" height="593.59" filterUnits="userSpaceOnUse" color-interpolation-filters="sRGB">
<feFlood flood-opacity="0" result="BackgroundImageFix"/>
<feBlend mode="normal" in="SourceGraphic" in2="BackgroundImageFix" result="shape"/>
<feGaussianBlur stdDeviation="60" result="effect1_foregroundBlur_413_3191"/>
</filter>
<clipPath id="clip0_413_3191">
<rect width="390" height="804" fill="white"/>
</clipPath>
</defs>
</svg>
