<svg width="390" height="904" viewBox="0 0 390 904" fill="none" xmlns="http://www.w3.org/2000/svg">
<rect width="390" height="904" fill="#131020"/>
<g clip-path="url(#clip0_413_2709)">
<g filter="url(#filter0_f_413_2709)">
<rect x="-57" y="49" width="289" height="393.025" rx="144.5" fill="#9100FF" fill-opacity="0.1"/>
</g>
<g filter="url(#filter1_f_413_2709)">
<rect x="195" y="353.61" width="234" height="353.59" rx="117" fill="#FF6A00" fill-opacity="0.05"/>
</g>
<path d="M144.692 46V35.7607H139.252V46H136.668V33.6162H147.197V46H144.692ZM158.693 41.2363C158.693 42.7773 158.266 43.9873 157.41 44.8662C156.555 45.7393 155.371 46.1758 153.859 46.1758C152.377 46.1758 151.214 45.7363 150.37 44.8574C149.526 43.9785 149.104 42.7715 149.104 41.2363C149.104 39.707 149.526 38.5059 150.37 37.6328C151.214 36.7539 152.395 36.3145 153.912 36.3145C155.465 36.3145 156.648 36.7393 157.463 37.5889C158.283 38.4326 158.693 39.6484 158.693 41.2363ZM156.109 41.2363C156.109 40.1055 155.925 39.2852 155.556 38.7754C155.187 38.2656 154.65 38.0107 153.947 38.0107C152.447 38.0107 151.697 39.0859 151.697 41.2363C151.697 42.2969 151.879 43.1055 152.242 43.6621C152.611 44.2129 153.142 44.4883 153.833 44.4883C155.351 44.4883 156.109 43.4043 156.109 41.2363ZM162.139 36.4902V39.8828C162.139 40.7969 162.602 41.2539 163.527 41.2539C163.797 41.2539 164.055 41.2363 164.301 41.2012C164.553 41.1602 165.013 41.0459 165.681 40.8584V36.4902H168.15V46H165.681V42.3525L164.934 42.6162C164.037 42.9443 163.182 43.1084 162.367 43.1084C161.512 43.1084 160.85 42.8682 160.381 42.3877C159.912 41.9014 159.678 41.2188 159.678 40.3398V36.4902H162.139ZM169.917 36.4902H177.722V38.1602H175.059V46H172.58V38.1602H169.917V36.4902ZM181.782 36.4902V40.7617C181.782 41.0312 181.762 41.4619 181.721 42.0537C181.68 42.6455 181.642 43.0557 181.606 43.2842L185.544 36.4902H188.049V46H185.764V41.166C185.764 40.873 185.784 40.5127 185.825 40.085C185.866 39.6572 185.904 39.3643 185.939 39.2061L182.116 46H179.479V36.4902H181.782ZM201.329 36.4902V38.1602H198.051V46H195.572V36.4902H201.329ZM211.867 41.2363C211.867 42.7773 211.439 43.9873 210.584 44.8662C209.729 45.7393 208.545 46.1758 207.033 46.1758C205.551 46.1758 204.388 45.7363 203.544 44.8574C202.7 43.9785 202.278 42.7715 202.278 41.2363C202.278 39.707 202.7 38.5059 203.544 37.6328C204.388 36.7539 205.568 36.3145 207.086 36.3145C208.639 36.3145 209.822 36.7393 210.637 37.5889C211.457 38.4326 211.867 39.6484 211.867 41.2363ZM209.283 41.2363C209.283 40.1055 209.099 39.2852 208.729 38.7754C208.36 38.2656 207.824 38.0107 207.121 38.0107C205.621 38.0107 204.871 39.0859 204.871 41.2363C204.871 42.2969 205.053 43.1055 205.416 43.6621C205.785 44.2129 206.315 44.4883 207.007 44.4883C208.524 44.4883 209.283 43.4043 209.283 41.2363ZM212.632 36.4902H220.437V38.1602H217.773V46H215.295V38.1602H212.632V36.4902ZM230.992 41.2363C230.992 42.7773 230.564 43.9873 229.709 44.8662C228.854 45.7393 227.67 46.1758 226.158 46.1758C224.676 46.1758 223.513 45.7363 222.669 44.8574C221.825 43.9785 221.403 42.7715 221.403 41.2363C221.403 39.707 221.825 38.5059 222.669 37.6328C223.513 36.7539 224.693 36.3145 226.211 36.3145C227.764 36.3145 228.947 36.7393 229.762 37.5889C230.582 38.4326 230.992 39.6484 230.992 41.2363ZM228.408 41.2363C228.408 40.1055 228.224 39.2852 227.854 38.7754C227.485 38.2656 226.949 38.0107 226.246 38.0107C224.746 38.0107 223.996 39.0859 223.996 41.2363C223.996 42.2969 224.178 43.1055 224.541 43.6621C224.91 44.2129 225.44 44.4883 226.132 44.4883C227.649 44.4883 228.408 43.4043 228.408 41.2363ZM237.672 36.4902C240.426 36.4902 241.803 37.2842 241.803 38.8721C241.803 39.4229 241.615 39.8799 241.24 40.2432C240.865 40.6006 240.341 40.8408 239.667 40.9639V41.0254C240.452 41.1191 241.047 41.3564 241.451 41.7373C241.861 42.1182 242.066 42.625 242.066 43.2578C242.066 44.1777 241.715 44.8662 241.012 45.3232C240.314 45.7744 239.324 46 238.041 46H232.961V36.4902H237.672ZM235.439 44.4619H237.435C238.208 44.4619 238.753 44.3652 239.069 44.1719C239.386 43.9727 239.544 43.6387 239.544 43.1699C239.544 42.6719 239.377 42.3232 239.043 42.124C238.709 41.9248 238.141 41.8252 237.338 41.8252H235.439V44.4619ZM235.439 38.0283V40.3135H237.268C237.982 40.3135 238.486 40.2285 238.779 40.0586C239.078 39.8887 239.228 39.5898 239.228 39.1621C239.228 38.7695 239.087 38.4824 238.806 38.3008C238.524 38.1191 238.05 38.0283 237.382 38.0283H235.439ZM252.824 41.2363C252.824 42.7773 252.396 43.9873 251.541 44.8662C250.686 45.7393 249.502 46.1758 247.99 46.1758C246.508 46.1758 245.345 45.7363 244.501 44.8574C243.657 43.9785 243.235 42.7715 243.235 41.2363C243.235 39.707 243.657 38.5059 244.501 37.6328C245.345 36.7539 246.525 36.3145 248.043 36.3145C249.596 36.3145 250.779 36.7393 251.594 37.5889C252.414 38.4326 252.824 39.6484 252.824 41.2363ZM250.24 41.2363C250.24 40.1055 250.056 39.2852 249.687 38.7754C249.317 38.2656 248.781 38.0107 248.078 38.0107C246.578 38.0107 245.828 39.0859 245.828 41.2363C245.828 42.2969 246.01 43.1055 246.373 43.6621C246.742 44.2129 247.272 44.4883 247.964 44.4883C249.481 44.4883 250.24 43.4043 250.24 41.2363Z" fill="#F1F5F9"/>
<g filter="url(#filter2_d_413_2709)">
<rect x="57" y="699" width="276" height="56" rx="28" fill="url(#paint0_linear_413_2709)" shape-rendering="crispEdges"/>
<path d="M93.5754 734V721.04H104.078V734H101.909V723.074H95.7444V734H93.5754ZM111.02 734.27C110.036 734.27 109.172 734.057 108.428 733.631C107.684 733.205 107.102 732.614 106.682 731.858C106.268 731.102 106.061 730.232 106.061 729.248C106.061 728.186 106.265 727.265 106.673 726.485C107.081 725.699 107.648 725.09 108.374 724.658C109.1 724.226 109.94 724.01 110.894 724.01C111.902 724.01 112.757 724.247 113.459 724.721C114.167 725.189 114.692 725.852 115.034 726.71C115.376 727.568 115.505 728.579 115.421 729.743H113.27V728.951C113.264 727.895 113.078 727.124 112.712 726.638C112.346 726.152 111.77 725.909 110.984 725.909C110.096 725.909 109.436 726.185 109.004 726.737C108.572 727.283 108.356 728.084 108.356 729.14C108.356 730.124 108.572 730.886 109.004 731.426C109.436 731.966 110.066 732.236 110.894 732.236C111.428 732.236 111.887 732.119 112.271 731.885C112.661 731.645 112.961 731.3 113.171 730.85L115.313 731.498C114.941 732.374 114.365 733.055 113.585 733.541C112.811 734.027 111.956 734.27 111.02 734.27ZM107.672 729.743V728.105H114.359V729.743H107.672ZM122.1 734.27C121.152 734.27 120.357 734.045 119.715 733.595C119.073 733.145 118.59 732.533 118.266 731.759C117.942 730.979 117.78 730.106 117.78 729.14C117.78 728.162 117.942 727.286 118.266 726.512C118.59 725.738 119.064 725.129 119.688 724.685C120.318 724.235 121.095 724.01 122.019 724.01C122.937 724.01 123.732 724.235 124.404 724.685C125.082 725.129 125.607 725.738 125.979 726.512C126.351 727.28 126.537 728.156 126.537 729.14C126.537 730.112 126.354 730.985 125.988 731.759C125.622 732.533 125.106 733.145 124.44 733.595C123.774 734.045 122.994 734.27 122.1 734.27ZM117.411 738.32V724.28H119.328V731.102H119.598V738.32H117.411ZM121.767 732.326C122.331 732.326 122.796 732.185 123.162 731.903C123.528 731.621 123.798 731.24 123.972 730.76C124.152 730.274 124.242 729.734 124.242 729.14C124.242 728.552 124.152 728.018 123.972 727.538C123.792 727.052 123.513 726.668 123.135 726.386C122.757 726.098 122.277 725.954 121.695 725.954C121.143 725.954 120.693 726.089 120.345 726.359C119.997 726.623 119.739 726.995 119.571 727.475C119.409 727.949 119.328 728.504 119.328 729.14C119.328 729.77 119.409 730.325 119.571 730.805C119.739 731.285 120 731.66 120.354 731.93C120.714 732.194 121.185 732.326 121.767 732.326ZM132.94 734.27C131.956 734.27 131.092 734.057 130.348 733.631C129.604 733.205 129.022 732.614 128.602 731.858C128.188 731.102 127.981 730.232 127.981 729.248C127.981 728.186 128.185 727.265 128.593 726.485C129.001 725.699 129.568 725.09 130.294 724.658C131.02 724.226 131.86 724.01 132.814 724.01C133.822 724.01 134.677 724.247 135.379 724.721C136.087 725.189 136.612 725.852 136.954 726.71C137.296 727.568 137.425 728.579 137.341 729.743H135.19V728.951C135.184 727.895 134.998 727.124 134.632 726.638C134.266 726.152 133.69 725.909 132.904 725.909C132.016 725.909 131.356 726.185 130.924 726.737C130.492 727.283 130.276 728.084 130.276 729.14C130.276 730.124 130.492 730.886 130.924 731.426C131.356 731.966 131.986 732.236 132.814 732.236C133.348 732.236 133.807 732.119 134.191 731.885C134.581 731.645 134.881 731.3 135.091 730.85L137.233 731.498C136.861 732.374 136.285 733.055 135.505 733.541C134.731 734.027 133.876 734.27 132.94 734.27ZM129.592 729.743V728.105H136.279V729.743H129.592ZM139.067 734V724.28H140.849L144.332 730.994L147.824 724.28H149.597V734H147.527V728.645L144.764 734H143.909L141.146 728.645V734H139.067ZM156.53 734.27C155.546 734.27 154.682 734.057 153.938 733.631C153.194 733.205 152.612 732.614 152.192 731.858C151.778 731.102 151.571 730.232 151.571 729.248C151.571 728.186 151.775 727.265 152.183 726.485C152.591 725.699 153.158 725.09 153.884 724.658C154.61 724.226 155.45 724.01 156.404 724.01C157.412 724.01 158.267 724.247 158.969 724.721C159.677 725.189 160.202 725.852 160.544 726.71C160.886 727.568 161.015 728.579 160.931 729.743H158.78V728.951C158.774 727.895 158.588 727.124 158.222 726.638C157.856 726.152 157.28 725.909 156.494 725.909C155.606 725.909 154.946 726.185 154.514 726.737C154.082 727.283 153.866 728.084 153.866 729.14C153.866 730.124 154.082 730.886 154.514 731.426C154.946 731.966 155.576 732.236 156.404 732.236C156.938 732.236 157.397 732.119 157.781 731.885C158.171 731.645 158.471 731.3 158.681 730.85L160.823 731.498C160.451 732.374 159.875 733.055 159.095 733.541C158.321 734.027 157.466 734.27 156.53 734.27ZM153.182 729.743V728.105H159.869V729.743H153.182ZM162.921 734V724.28H165V732.074H167.745V724.28H169.824V732.074H172.569V724.28H174.648V734H162.921ZM179.877 734.27C179.175 734.27 178.581 734.138 178.095 733.874C177.609 733.604 177.24 733.247 176.988 732.803C176.742 732.359 176.619 731.87 176.619 731.336C176.619 730.868 176.697 730.448 176.853 730.076C177.009 729.698 177.249 729.374 177.573 729.104C177.897 728.828 178.317 728.603 178.833 728.429C179.223 728.303 179.679 728.189 180.201 728.087C180.729 727.985 181.299 727.892 181.911 727.808C182.529 727.718 183.174 727.622 183.846 727.52L183.072 727.961C183.078 727.289 182.928 726.794 182.622 726.476C182.316 726.158 181.8 725.999 181.074 725.999C180.636 725.999 180.213 726.101 179.805 726.305C179.397 726.509 179.112 726.86 178.95 727.358L176.97 726.737C177.21 725.915 177.666 725.255 178.338 724.757C179.016 724.259 179.928 724.01 181.074 724.01C181.938 724.01 182.697 724.151 183.351 724.433C184.011 724.715 184.5 725.177 184.818 725.819C184.992 726.161 185.097 726.512 185.133 726.872C185.169 727.226 185.187 727.613 185.187 728.033V734H183.288V731.894L183.603 732.236C183.165 732.938 182.652 733.454 182.064 733.784C181.482 734.108 180.753 734.27 179.877 734.27ZM180.309 732.542C180.801 732.542 181.221 732.455 181.569 732.281C181.917 732.107 182.193 731.894 182.397 731.642C182.607 731.39 182.748 731.153 182.82 730.931C182.934 730.655 182.997 730.34 183.009 729.986C183.027 729.626 183.036 729.335 183.036 729.113L183.702 729.311C183.048 729.413 182.487 729.503 182.019 729.581C181.551 729.659 181.149 729.734 180.813 729.806C180.477 729.872 180.18 729.947 179.922 730.031C179.67 730.121 179.457 730.226 179.283 730.346C179.109 730.466 178.974 730.604 178.878 730.76C178.788 730.916 178.743 731.099 178.743 731.309C178.743 731.549 178.803 731.762 178.923 731.948C179.043 732.128 179.217 732.272 179.445 732.38C179.679 732.488 179.967 732.542 180.309 732.542ZM189.97 734V726.206H186.721V724.28H195.388V726.206H192.139V734H189.97ZM197.084 734L197.075 724.28H199.244V727.52H200.99C201.26 727.52 201.563 727.526 201.899 727.538C202.241 727.55 202.526 727.577 202.754 727.619C203.3 727.739 203.765 727.931 204.149 728.195C204.539 728.459 204.836 728.804 205.04 729.23C205.244 729.656 205.346 730.169 205.346 730.769C205.346 731.627 205.124 732.314 204.68 732.83C204.242 733.34 203.624 733.688 202.826 733.874C202.586 733.928 202.292 733.964 201.944 733.982C201.602 733.994 201.293 734 201.017 734H197.084ZM199.244 732.299H201.206C201.338 732.299 201.485 732.293 201.647 732.281C201.809 732.269 201.965 732.242 202.115 732.2C202.385 732.128 202.622 731.966 202.826 731.714C203.036 731.456 203.141 731.141 203.141 730.769C203.141 730.379 203.036 730.058 202.826 729.806C202.616 729.554 202.358 729.389 202.052 729.311C201.914 729.275 201.77 729.251 201.62 729.239C201.47 729.227 201.332 729.221 201.206 729.221H199.244V732.299ZM210.909 734L210.927 724.28H213.123V728.96L216.678 724.28H219.387L215.616 729.14L219.711 734H216.84L213.123 729.32V734H210.909ZM223.331 734.27C222.629 734.27 222.035 734.138 221.549 733.874C221.063 733.604 220.694 733.247 220.442 732.803C220.196 732.359 220.073 731.87 220.073 731.336C220.073 730.868 220.151 730.448 220.307 730.076C220.463 729.698 220.703 729.374 221.027 729.104C221.351 728.828 221.771 728.603 222.287 728.429C222.677 728.303 223.133 728.189 223.655 728.087C224.183 727.985 224.753 727.892 225.365 727.808C225.983 727.718 226.628 727.622 227.3 727.52L226.526 727.961C226.532 727.289 226.382 726.794 226.076 726.476C225.77 726.158 225.254 725.999 224.528 725.999C224.09 725.999 223.667 726.101 223.259 726.305C222.851 726.509 222.566 726.86 222.404 727.358L220.424 726.737C220.664 725.915 221.12 725.255 221.792 724.757C222.47 724.259 223.382 724.01 224.528 724.01C225.392 724.01 226.151 724.151 226.805 724.433C227.465 724.715 227.954 725.177 228.272 725.819C228.446 726.161 228.551 726.512 228.587 726.872C228.623 727.226 228.641 727.613 228.641 728.033V734H226.742V731.894L227.057 732.236C226.619 732.938 226.106 733.454 225.518 733.784C224.936 734.108 224.207 734.27 223.331 734.27ZM223.763 732.542C224.255 732.542 224.675 732.455 225.023 732.281C225.371 732.107 225.647 731.894 225.851 731.642C226.061 731.39 226.202 731.153 226.274 730.931C226.388 730.655 226.451 730.34 226.463 729.986C226.481 729.626 226.49 729.335 226.49 729.113L227.156 729.311C226.502 729.413 225.941 729.503 225.473 729.581C225.005 729.659 224.603 729.734 224.267 729.806C223.931 729.872 223.634 729.947 223.376 730.031C223.124 730.121 222.911 730.226 222.737 730.346C222.563 730.466 222.428 730.604 222.332 730.76C222.242 730.916 222.197 731.099 222.197 731.309C222.197 731.549 222.257 731.762 222.377 731.948C222.497 732.128 222.671 732.272 222.899 732.38C223.133 732.488 223.421 732.542 223.763 732.542ZM235.655 734.27C234.707 734.27 233.912 734.045 233.27 733.595C232.628 733.145 232.145 732.533 231.821 731.759C231.497 730.979 231.335 730.106 231.335 729.14C231.335 728.162 231.497 727.286 231.821 726.512C232.145 725.738 232.619 725.129 233.243 724.685C233.873 724.235 234.65 724.01 235.574 724.01C236.492 724.01 237.287 724.235 237.959 724.685C238.637 725.129 239.162 725.738 239.534 726.512C239.906 727.28 240.092 728.156 240.092 729.14C240.092 730.112 239.909 730.985 239.543 731.759C239.177 732.533 238.661 733.145 237.995 733.595C237.329 734.045 236.549 734.27 235.655 734.27ZM230.966 738.32V724.28H232.883V731.102H233.153V738.32H230.966ZM235.322 732.326C235.886 732.326 236.351 732.185 236.717 731.903C237.083 731.621 237.353 731.24 237.527 730.76C237.707 730.274 237.797 729.734 237.797 729.14C237.797 728.552 237.707 728.018 237.527 727.538C237.347 727.052 237.068 726.668 236.69 726.386C236.312 726.098 235.832 725.954 235.25 725.954C234.698 725.954 234.248 726.089 233.9 726.359C233.552 726.623 233.294 726.995 233.126 727.475C232.964 727.949 232.883 728.504 232.883 729.14C232.883 729.77 232.964 730.325 233.126 730.805C233.294 731.285 233.555 731.66 233.909 731.93C234.269 732.194 234.74 732.326 235.322 732.326ZM244.514 734V726.206H241.265V724.28H249.932V726.206H246.683V734H244.514ZM251.629 734L251.62 724.28H253.789V727.52H254.878C255.148 727.52 255.451 727.526 255.787 727.538C256.129 727.55 256.414 727.577 256.642 727.619C257.188 727.739 257.653 727.931 258.037 728.195C258.427 728.459 258.724 728.804 258.928 729.23C259.132 729.656 259.234 730.169 259.234 730.769C259.234 731.627 259.012 732.314 258.568 732.83C258.124 733.34 257.503 733.688 256.705 733.874C256.471 733.928 256.18 733.964 255.832 733.982C255.484 733.994 255.175 734 254.905 734H251.629ZM253.789 732.299H255.094C255.226 732.299 255.373 732.293 255.535 732.281C255.697 732.269 255.85 732.242 255.994 732.2C256.264 732.128 256.504 731.966 256.714 731.714C256.924 731.456 257.029 731.141 257.029 730.769C257.029 730.379 256.924 730.058 256.714 729.806C256.504 729.554 256.246 729.389 255.94 729.311C255.796 729.275 255.649 729.251 255.499 729.239C255.355 729.227 255.22 729.221 255.094 729.221H253.789V732.299ZM260.251 734V724.28H262.42V734H260.251Z" fill="#FFF3FD"/>
<path d="M293 724L291.75 721.25L289 720L291.75 718.75L293 716L294.25 718.75L297 720L294.25 721.25L293 724ZM293 738L291.75 735.25L289 734L291.75 732.75L293 730L294.25 732.75L297 734L294.25 735.25L293 738ZM283 735L280.5 729.5L275 727L280.5 724.5L283 719L285.5 724.5L291 727L285.5 729.5L283 735Z" fill="#FFF3FD"/>
</g>
</g>
<path d="M35.825 41L41.425 46.6L40 48L32 40L40 32L41.425 33.4L35.825 39H48V41H35.825Z" fill="#F1F5F9"/>
<defs>
<filter id="filter0_f_413_2709" x="-205.205" y="-99.2051" width="585.41" height="689.436" filterUnits="userSpaceOnUse" color-interpolation-filters="sRGB">
<feFlood flood-opacity="0" result="BackgroundImageFix"/>
<feBlend mode="normal" in="SourceGraphic" in2="BackgroundImageFix" result="shape"/>
<feGaussianBlur stdDeviation="74.1026" result="effect1_foregroundBlur_413_2709"/>
</filter>
<filter id="filter1_f_413_2709" x="75" y="233.61" width="474" height="593.59" filterUnits="userSpaceOnUse" color-interpolation-filters="sRGB">
<feFlood flood-opacity="0" result="BackgroundImageFix"/>
<feBlend mode="normal" in="SourceGraphic" in2="BackgroundImageFix" result="shape"/>
<feGaussianBlur stdDeviation="60" result="effect1_foregroundBlur_413_2709"/>
</filter>
<filter id="filter2_d_413_2709" x="27" y="677" width="336" height="116" filterUnits="userSpaceOnUse" color-interpolation-filters="sRGB">
<feFlood flood-opacity="0" result="BackgroundImageFix"/>
<feColorMatrix in="SourceAlpha" type="matrix" values="0 0 0 0 0 0 0 0 0 0 0 0 0 0 0 0 0 0 127 0" result="hardAlpha"/>
<feOffset dy="8"/>
<feGaussianBlur stdDeviation="15"/>
<feComposite in2="hardAlpha" operator="out"/>
<feColorMatrix type="matrix" values="0 0 0 0 0.25 0 0 0 0 0 0 0 0 0 1 0 0 0 0.28 0"/>
<feBlend mode="normal" in2="BackgroundImageFix" result="effect1_dropShadow_413_2709"/>
<feBlend mode="normal" in="SourceGraphic" in2="effect1_dropShadow_413_2709" result="shape"/>
</filter>
<linearGradient id="paint0_linear_413_2709" x1="57" y1="727" x2="333" y2="727" gradientUnits="userSpaceOnUse">
<stop stop-color="#5545B8"/>
<stop offset="1" stop-color="#7565DE"/>
</linearGradient>
<clipPath id="clip0_413_2709">
<rect width="390" height="804" fill="white"/>
</clipPath>
</defs>
</svg>
